# MagicaVoxel @ Ephtracy

# group
o 

# material
mtllib bullet.mtl
usemtl palette

# normals
vn -1 0 0
vn 1 0 0
vn 0 0 1
vn 0 0 -1
vn 0 -1 0
vn 0 1 0

# texcoords
vt 0.154297 0.5
vt 0.162109 0.5
vt 0.216797 0.5
vt 0.306641 0.5
vt 0.337891 0.5

# verts
v -0.5 0 0.1
v -0.5 0 -0.1
v -0.5 0.1 0.2
v -0.5 0.1 0.1
v -0.5 0.1 -0.1
v -0.5 0.1 -0.2
v -0.5 0.3 0.2
v -0.5 0.3 0.1
v -0.5 0.3 -0.1
v -0.5 0.3 -0.2
v -0.5 0.4 0.1
v -0.5 0.4 -0.1
v 0.4 0 0.1
v 0.4 0 -0.1
v 0.4 0.1 0.2
v 0.4 0.1 0.1
v 0.4 0.1 -0.1
v 0.4 0.1 -0.2
v 0.4 0.3 0.2
v 0.4 0.3 0.1
v 0.4 0.3 -0.1
v 0.4 0.3 -0.2
v 0.4 0.4 0.1
v 0.4 0.4 -0.1
v 0.5 0.1 0.1
v 0.5 0.1 -0.1
v 0.5 0.3 0.1
v 0.5 0.3 -0.1
v -0.5 0.1 0.2
v -0.5 0.3 0.2
v -0.2 0.1 0.2
v -0.2 0.2 0.2
v -0.1 0.2 0.2
v -0.1 0.3 0.2
v 0.2 0.1 0.2
v 0.2 0.2 0.2
v 0.2 0.3 0.2
v 0.4 0.1 0.2
v 0.4 0.3 0.2
v -0.5 0 0.1
v -0.5 0.1 0.1
v -0.5 0.3 0.1
v -0.5 0.4 0.1
v -0.2 0.1 0.1
v -0.2 0.3 0.1
v -0.2 0.4 0.1
v -0.1 0 0.1
v -0.1 0.1 0.1
v -0.1 0.3 0.1
v 0.2 0 0.1
v 0.2 0.1 0.1
v 0.2 0.3 0.1
v 0.2 0.4 0.1
v 0.4 0 0.1
v 0.4 0.1 0.1
v 0.4 0.3 0.1
v 0.4 0.4 0.1
v 0.5 0.1 0.1
v 0.5 0.3 0.1
v -0.5 0 -0.1
v -0.5 0.1 -0.1
v -0.5 0.3 -0.1
v -0.5 0.4 -0.1
v -0.3 0.3 -0.1
v -0.3 0.4 -0.1
v -0.2 0.3 -0.1
v 0 0.1 -0.1
v 0.1 0 -0.1
v 0.1 0.1 -0.1
v 0.2 0 -0.1
v 0.2 0.1 -0.1
v 0.2 0.3 -0.1
v 0.2 0.4 -0.1
v 0.4 0 -0.1
v 0.4 0.1 -0.1
v 0.4 0.3 -0.1
v 0.4 0.4 -0.1
v 0.5 0.1 -0.1
v 0.5 0.3 -0.1
v -0.5 0.1 -0.2
v -0.5 0.3 -0.2
v -0.2 0.2 -0.2
v -0.2 0.3 -0.2
v 0 0.1 -0.2
v 0 0.2 -0.2
v 0.1 0.1 -0.2
v 0.1 0.2 -0.2
v 0.2 0.1 -0.2
v 0.2 0.3 -0.2
v 0.4 0.1 -0.2
v 0.4 0.3 -0.2
v -0.5 0 0.1
v -0.1 0 0.1
v 0.2 0 0.1
v 0.4 0 0.1
v -0.1 0 0
v 0.1 0 0
v -0.5 0 -0.1
v 0.1 0 -0.1
v 0.2 0 -0.1
v 0.4 0 -0.1
v -0.5 0.1 0.2
v -0.2 0.1 0.2
v 0.2 0.1 0.2
v 0.4 0.1 0.2
v -0.5 0.1 0.1
v -0.2 0.1 0.1
v -0.1 0.1 0.1
v 0.2 0.1 0.1
v 0.4 0.1 0.1
v 0.5 0.1 0.1
v -0.5 0.1 -0.1
v 0 0.1 -0.1
v 0.1 0.1 -0.1
v 0.2 0.1 -0.1
v 0.4 0.1 -0.1
v 0.5 0.1 -0.1
v -0.5 0.1 -0.2
v 0 0.1 -0.2
v 0.1 0.1 -0.2
v 0.2 0.1 -0.2
v 0.4 0.1 -0.2
v -0.5 0.3 0.2
v -0.1 0.3 0.2
v 0.2 0.3 0.2
v 0.4 0.3 0.2
v -0.5 0.3 0.1
v -0.2 0.3 0.1
v -0.1 0.3 0.1
v 0.2 0.3 0.1
v 0.4 0.3 0.1
v 0.5 0.3 0.1
v -0.5 0.3 -0.1
v -0.3 0.3 -0.1
v -0.2 0.3 -0.1
v 0.2 0.3 -0.1
v 0.4 0.3 -0.1
v 0.5 0.3 -0.1
v -0.5 0.3 -0.2
v -0.2 0.3 -0.2
v 0.2 0.3 -0.2
v 0.4 0.3 -0.2
v -0.5 0.4 0.1
v -0.2 0.4 0.1
v 0.2 0.4 0.1
v 0.4 0.4 0.1
v -0.3 0.4 0
v -0.2 0.4 0
v -0.5 0.4 -0.1
v -0.3 0.4 -0.1
v 0.2 0.4 -0.1
v 0.4 0.4 -0.1

# faces
f 4/1/1 2/1/1 1/1/1
f 5/1/1 2/1/1 4/1/1
f 7/1/1 4/1/1 3/1/1
f 8/2/1 5/2/1 4/2/1
f 8/1/1 4/1/1 7/1/1
f 9/1/1 6/1/1 5/1/1
f 9/2/1 5/2/1 8/2/1
f 10/1/1 6/1/1 9/1/1
f 11/1/1 9/1/1 8/1/1
f 12/1/1 9/1/1 11/1/1
f 13/4/2 14/4/2 16/4/2
f 16/4/2 14/4/2 17/4/2
f 15/4/2 16/4/2 19/4/2
f 19/4/2 16/4/2 20/4/2
f 17/4/2 18/4/2 21/4/2
f 21/4/2 18/4/2 22/4/2
f 20/4/2 21/4/2 23/4/2
f 23/4/2 21/4/2 24/4/2
f 25/4/2 26/4/2 27/4/2
f 27/4/2 26/4/2 28/4/2
f 31/1/3 30/1/3 29/1/3
f 32/1/3 30/1/3 31/1/3
f 33/3/3 32/3/3 31/3/3
f 33/1/3 30/1/3 32/1/3
f 34/1/3 30/1/3 33/1/3
f 35/3/3 33/3/3 31/3/3
f 36/5/3 34/5/3 33/5/3
f 36/3/3 33/3/3 35/3/3
f 37/5/3 34/5/3 36/5/3
f 38/4/3 36/4/3 35/4/3
f 38/4/3 37/4/3 36/4/3
f 39/4/3 37/4/3 38/4/3
f 44/1/3 41/1/3 40/1/3
f 45/1/3 43/1/3 42/1/3
f 46/1/3 43/1/3 45/1/3
f 47/1/3 44/1/3 40/1/3
f 48/1/3 44/1/3 47/1/3
f 49/5/3 46/5/3 45/5/3
f 50/3/3 48/3/3 47/3/3
f 51/3/3 48/3/3 50/3/3
f 52/5/3 46/5/3 49/5/3
f 53/5/3 46/5/3 52/5/3
f 54/4/3 51/4/3 50/4/3
f 55/4/3 51/4/3 54/4/3
f 56/4/3 53/4/3 52/4/3
f 57/4/3 53/4/3 56/4/3
f 58/4/3 56/4/3 55/4/3
f 59/4/3 56/4/3 58/4/3
f 62/1/4 63/1/4 64/1/4
f 64/1/4 63/1/4 65/1/4
f 64/5/4 65/5/4 66/5/4
f 60/1/4 61/1/4 67/1/4
f 60/1/4 67/1/4 68/1/4
f 68/1/4 67/1/4 69/1/4
f 68/3/4 69/3/4 70/3/4
f 70/3/4 69/3/4 71/3/4
f 66/5/4 65/5/4 72/5/4
f 72/5/4 65/5/4 73/5/4
f 70/4/4 71/4/4 74/4/4
f 74/4/4 71/4/4 75/4/4
f 72/4/4 73/4/4 76/4/4
f 76/4/4 73/4/4 77/4/4
f 75/4/4 76/4/4 78/4/4
f 78/4/4 76/4/4 79/4/4
f 80/1/4 81/1/4 82/1/4
f 82/1/4 81/1/4 83/1/4
f 80/1/4 82/1/4 84/1/4
f 82/5/4 83/5/4 85/5/4
f 84/1/4 82/1/4 85/1/4
f 84/3/4 85/3/4 86/3/4
f 85/5/4 83/5/4 87/5/4
f 86/3/4 85/3/4 87/3/4
f 86/5/4 87/5/4 88/5/4
f 87/5/4 83/5/4 89/5/4
f 88/5/4 87/5/4 89/5/4
f 88/4/4 89/4/4 90/4/4
f 90/4/4 89/4/4 91/4/4
f 96/1/5 93/1/5 92/1/5
f 96/3/5 94/3/5 93/3/5
f 97/3/5 94/3/5 96/3/5
f 98/1/5 96/1/5 92/1/5
f 98/1/5 97/1/5 96/1/5
f 99/3/5 94/3/5 97/3/5
f 99/1/5 97/1/5 98/1/5
f 100/4/5 95/4/5 94/4/5
f 100/3/5 94/3/5 99/3/5
f 101/4/5 95/4/5 100/4/5
f 106/1/5 103/1/5 102/1/5
f 107/3/5 104/3/5 103/3/5
f 107/1/5 103/1/5 106/1/5
f 108/3/5 104/3/5 107/3/5
f 109/4/5 105/4/5 104/4/5
f 109/3/5 104/3/5 108/3/5
f 110/4/5 105/4/5 109/4/5
f 116/4/5 111/4/5 110/4/5
f 117/4/5 111/4/5 116/4/5
f 118/1/5 113/1/5 112/1/5
f 119/3/5 114/3/5 113/3/5
f 119/1/5 113/1/5 118/1/5
f 120/5/5 115/5/5 114/5/5
f 120/3/5 114/3/5 119/3/5
f 121/4/5 116/4/5 115/4/5
f 121/5/5 115/5/5 120/5/5
f 122/4/5 116/4/5 121/4/5
f 123/1/6 124/1/6 127/1/6
f 127/1/6 124/1/6 128/1/6
f 124/5/6 125/5/6 129/5/6
f 128/1/6 124/1/6 129/1/6
f 125/4/6 126/4/6 130/4/6
f 129/5/6 125/5/6 130/5/6
f 130/4/6 126/4/6 131/4/6
f 131/4/6 132/4/6 137/4/6
f 137/4/6 132/4/6 138/4/6
f 133/1/6 134/1/6 139/1/6
f 134/1/6 135/1/6 139/1/6
f 135/5/6 136/5/6 140/5/6
f 139/1/6 135/1/6 140/1/6
f 136/4/6 137/4/6 141/4/6
f 140/5/6 136/5/6 141/5/6
f 141/4/6 137/4/6 142/4/6
f 143/1/6 144/1/6 147/1/6
f 144/5/6 145/5/6 148/5/6
f 147/1/6 144/1/6 148/1/6
f 143/1/6 147/1/6 149/1/6
f 147/5/6 148/5/6 150/5/6
f 149/1/6 147/1/6 150/1/6
f 145/4/6 146/4/6 151/4/6
f 150/5/6 148/5/6 151/5/6
f 148/5/6 145/5/6 151/5/6
f 151/4/6 146/4/6 152/4/6
