# MagicaVoxel @ Ephtracy

# group
o 

# material
mtllib Zombie.mtl
usemtl palette

# normals
vn -1 0 0
vn 1 0 0
vn 0 0 1
vn 0 0 -1
vn 0 -1 0
vn 0 1 0

# texcoords
vt 0.525391 0.5
vt 0.529297 0.5
vt 0.556641 0.5
vt 0.650391 0.5
vt 0.666016 0.5

# verts
v -0.2 0.5 0.1
v -0.2 0.5 -0.1
v -0.2 0.6 0.4
v -0.2 0.6 0.1
v -0.2 0.7 0.4
v -0.2 0.7 0.1
v -0.2 0.7 -0.1
v -0.1 0 0.1
v -0.1 0 -0.1
v -0.1 0.2 0.1
v -0.1 0.2 -0.1
v -0.1 0.3 0.1
v -0.1 0.3 -0.1
v -0.1 0.5 0.1
v -0.1 0.5 -0.1
v -0.1 0.7 0.2
v -0.1 0.7 0.1
v -0.1 0.7 -0.1
v -0.1 0.9 0
v -0.1 0.9 -0.1
v -0.1 1 0.2
v -0.1 1 0
v -0.1 1 -0.1
v 0.1 0 0.1
v 0.1 0 -0.1
v 0.1 0.1 0.1
v 0.1 0.1 0
v 0.1 0.2 0.1
v 0.1 0.2 0
v 0.1 0.2 -0.1
v 0.2 0.6 0.4
v 0.2 0.6 0.1
v 0.2 0.7 0.4
v 0.2 0.7 0.2
v 0.2 0.7 0.1
v -0.1 0.6 0.4
v -0.1 0.6 0.1
v -0.1 0.7 0.4
v -0.1 0.7 0.2
v -0.1 0.7 0.1
v 0 0 0.1
v 0 0 -0.1
v 0 0.2 0.1
v 0 0.2 -0.1
v 0.2 0 0.1
v 0.2 0 -0.1
v 0.2 0.1 0.1
v 0.2 0.1 0
v 0.2 0.2 0.1
v 0.2 0.2 0
v 0.2 0.2 -0.1
v 0.2 0.3 0.1
v 0.2 0.3 -0.1
v 0.2 0.5 0.1
v 0.2 0.5 -0.1
v 0.2 0.7 0.2
v 0.2 0.7 0.1
v 0.2 0.7 -0.1
v 0.2 1 0.2
v 0.2 1 -0.1
v 0.3 0.5 0.1
v 0.3 0.5 -0.1
v 0.3 0.6 0.4
v 0.3 0.6 0.1
v 0.3 0.7 0.4
v 0.3 0.7 0.1
v 0.3 0.7 -0.1
v -0.2 0.6 0.4
v -0.2 0.7 0.4
v -0.1 0.6 0.4
v -0.1 0.7 0.4
v 0.2 0.6 0.4
v 0.2 0.7 0.4
v 0.3 0.6 0.4
v 0.3 0.7 0.4
v -0.1 0.7 0.2
v -0.1 1 0.2
v 0.2 0.7 0.2
v 0.2 1 0.2
v -0.2 0.5 0.1
v -0.2 0.6 0.1
v -0.1 0 0.1
v -0.1 0.2 0.1
v -0.1 0.3 0.1
v -0.1 0.5 0.1
v -0.1 0.6 0.1
v -0.1 0.7 0.1
v 0 0 0.1
v 0 0.2 0.1
v 0.1 0 0.1
v 0.1 0.1 0.1
v 0.1 0.2 0.1
v 0.2 0 0.1
v 0.2 0.1 0.1
v 0.2 0.2 0.1
v 0.2 0.3 0.1
v 0.2 0.5 0.1
v 0.2 0.6 0.1
v 0.2 0.7 0.1
v 0.3 0.5 0.1
v 0.3 0.6 0.1
v -0.2 0.5 -0.1
v -0.2 0.7 -0.1
v -0.1 0 -0.1
v -0.1 0.2 -0.1
v -0.1 0.3 -0.1
v -0.1 0.5 -0.1
v -0.1 0.6 -0.1
v -0.1 0.7 -0.1
v -0.1 0.9 -0.1
v -0.1 1 -0.1
v 0 0 -0.1
v 0 0.2 -0.1
v 0 0.9 -0.1
v 0 1 -0.1
v 0.1 0 -0.1
v 0.1 0.2 -0.1
v 0.2 0 -0.1
v 0.2 0.2 -0.1
v 0.2 0.3 -0.1
v 0.2 0.5 -0.1
v 0.2 0.6 -0.1
v 0.2 0.7 -0.1
v 0.2 1 -0.1
v 0.3 0.5 -0.1
v 0.3 0.7 -0.1
v -0.1 0 0.1
v 0 0 0.1
v 0.1 0 0.1
v 0.2 0 0.1
v -0.1 0 -0.1
v 0 0 -0.1
v 0.1 0 -0.1
v 0.2 0 -0.1
v 0 0.2 0.1
v 0.1 0.2 0.1
v 0.1 0.2 0
v 0 0.2 -0.1
v 0.1 0.2 -0.1
v -0.2 0.5 0.1
v -0.1 0.5 0.1
v 0.2 0.5 0.1
v 0.3 0.5 0.1
v -0.2 0.5 -0.1
v -0.1 0.5 -0.1
v 0.2 0.5 -0.1
v 0.3 0.5 -0.1
v -0.2 0.6 0.4
v -0.1 0.6 0.4
v 0.2 0.6 0.4
v 0.3 0.6 0.4
v -0.2 0.6 0.1
v -0.1 0.6 0.1
v 0.2 0.6 0.1
v 0.3 0.6 0.1
v -0.1 0.7 0.2
v 0.2 0.7 0.2
v -0.1 0.7 0.1
v 0.2 0.7 0.1
v -0.2 0.7 0.4
v -0.1 0.7 0.4
v 0.2 0.7 0.4
v 0.3 0.7 0.4
v -0.1 0.7 0.2
v 0.2 0.7 0.2
v -0.2 0.7 0.1
v -0.1 0.7 0.1
v 0.2 0.7 0.1
v 0.3 0.7 0.1
v -0.2 0.7 -0.1
v -0.1 0.7 -0.1
v 0.2 0.7 -0.1
v 0.3 0.7 -0.1
v -0.1 1 0.2
v 0.2 1 0.2
v -0.1 1 0
v 0 1 0
v -0.1 1 -0.1
v 0 1 -0.1
v 0.2 1 -0.1

# faces
f 4/1/1 2/1/1 1/1/1
f 5/4/1 4/4/1 3/4/1
f 6/1/1 2/1/1 4/1/1
f 6/4/1 4/4/1 5/4/1
f 7/1/1 2/1/1 6/1/1
f 10/4/1 9/4/1 8/4/1
f 11/4/1 9/4/1 10/4/1
f 12/5/1 11/5/1 10/5/1
f 13/5/1 11/5/1 12/5/1
f 14/1/1 13/1/1 12/1/1
f 15/1/1 13/1/1 14/1/1
f 19/4/1 17/4/1 16/4/1
f 19/4/1 18/4/1 17/4/1
f 20/4/1 18/4/1 19/4/1
f 21/4/1 19/4/1 16/4/1
f 22/3/1 20/3/1 19/3/1
f 22/4/1 19/4/1 21/4/1
f 23/3/1 20/3/1 22/3/1
f 26/4/1 25/4/1 24/4/1
f 27/4/1 25/4/1 26/4/1
f 28/3/1 27/3/1 26/3/1
f 29/4/1 25/4/1 27/4/1
f 29/3/1 27/3/1 28/3/1
f 30/4/1 25/4/1 29/4/1
f 33/4/1 32/4/1 31/4/1
f 34/4/1 32/4/1 33/4/1
f 35/4/1 32/4/1 34/4/1
f 36/4/2 37/4/2 38/4/2
f 38/4/2 37/4/2 39/4/2
f 39/4/2 37/4/2 40/4/2
f 41/4/2 42/4/2 43/4/2
f 43/4/2 42/4/2 44/4/2
f 45/4/2 46/4/2 47/4/2
f 47/4/2 46/4/2 48/4/2
f 47/3/2 48/3/2 49/3/2
f 48/4/2 46/4/2 50/4/2
f 49/3/2 48/3/2 50/3/2
f 50/4/2 46/4/2 51/4/2
f 49/5/2 50/5/2 52/5/2
f 50/5/2 51/5/2 52/5/2
f 52/5/2 51/5/2 53/5/2
f 52/1/2 53/1/2 54/1/2
f 54/1/2 53/1/2 55/1/2
f 56/4/2 57/4/2 59/4/2
f 57/4/2 58/4/2 59/4/2
f 59/4/2 58/4/2 60/4/2
f 61/1/2 62/1/2 64/1/2
f 63/4/2 64/4/2 65/4/2
f 64/1/2 62/1/2 66/1/2
f 65/4/2 64/4/2 66/4/2
f 66/1/2 62/1/2 67/1/2
f 70/4/3 69/4/3 68/4/3
f 71/4/3 69/4/3 70/4/3
f 74/4/3 73/4/3 72/4/3
f 75/4/3 73/4/3 74/4/3
f 78/4/3 77/4/3 76/4/3
f 79/4/3 77/4/3 78/4/3
f 85/1/3 81/1/3 80/1/3
f 86/1/3 81/1/3 85/1/3
f 88/4/3 83/4/3 82/4/3
f 89/5/3 84/5/3 83/5/3
f 89/4/3 83/4/3 88/4/3
f 92/5/3 84/5/3 89/5/3
f 93/4/3 91/4/3 90/4/3
f 94/3/3 92/3/3 91/3/3
f 94/4/3 91/4/3 93/4/3
f 95/5/3 84/5/3 92/5/3
f 95/3/3 92/3/3 94/3/3
f 96/1/3 85/1/3 84/1/3
f 96/5/3 84/5/3 95/5/3
f 96/1/3 86/1/3 85/1/3
f 97/1/3 86/1/3 96/1/3
f 98/2/3 87/2/3 86/2/3
f 98/1/3 86/1/3 97/1/3
f 99/2/3 87/2/3 98/2/3
f 100/1/3 98/1/3 97/1/3
f 101/1/3 98/1/3 100/1/3
f 102/1/4 103/1/4 107/1/4
f 107/1/4 103/1/4 108/1/4
f 108/1/4 103/1/4 109/1/4
f 104/4/4 105/4/4 112/4/4
f 105/5/4 106/5/4 113/5/4
f 112/4/4 105/4/4 113/4/4
f 110/3/4 111/3/4 114/3/4
f 109/4/4 110/4/4 114/4/4
f 114/3/4 111/3/4 115/3/4
f 113/5/4 106/5/4 117/5/4
f 116/4/4 117/4/4 118/4/4
f 117/5/4 106/5/4 119/5/4
f 118/4/4 117/4/4 119/4/4
f 106/1/4 107/1/4 120/1/4
f 119/5/4 106/5/4 120/5/4
f 107/1/4 108/1/4 120/1/4
f 120/1/4 108/1/4 121/1/4
f 108/2/4 109/2/4 122/2/4
f 121/1/4 108/1/4 122/1/4
f 114/4/4 115/4/4 123/4/4
f 122/2/4 109/2/4 123/2/4
f 109/4/4 114/4/4 123/4/4
f 123/4/4 115/4/4 124/4/4
f 121/1/4 122/1/4 125/1/4
f 122/1/4 123/1/4 125/1/4
f 125/1/4 123/1/4 126/1/4
f 131/4/5 128/4/5 127/4/5
f 132/4/5 128/4/5 131/4/5
f 133/4/5 130/4/5 129/4/5
f 134/4/5 130/4/5 133/4/5
f 137/5/5 136/5/5 135/5/5
f 138/5/5 137/5/5 135/5/5
f 139/5/5 137/5/5 138/5/5
f 144/1/5 141/1/5 140/1/5
f 145/1/5 141/1/5 144/1/5
f 146/1/5 143/1/5 142/1/5
f 147/1/5 143/1/5 146/1/5
f 152/4/5 149/4/5 148/4/5
f 153/4/5 149/4/5 152/4/5
f 154/4/5 151/4/5 150/4/5
f 155/4/5 151/4/5 154/4/5
f 158/4/5 157/4/5 156/4/5
f 159/4/5 157/4/5 158/4/5
f 160/4/6 161/4/6 164/4/6
f 162/4/6 163/4/6 165/4/6
f 160/4/6 164/4/6 166/4/6
f 166/4/6 164/4/6 167/4/6
f 165/4/6 163/4/6 168/4/6
f 168/4/6 163/4/6 169/4/6
f 166/1/6 167/1/6 170/1/6
f 170/1/6 167/1/6 171/1/6
f 168/1/6 169/1/6 172/1/6
f 172/1/6 169/1/6 173/1/6
f 174/4/6 175/4/6 176/4/6
f 176/4/6 175/4/6 177/4/6
f 176/3/6 177/3/6 178/3/6
f 177/4/6 175/4/6 179/4/6
f 178/3/6 177/3/6 179/3/6
f 179/4/6 175/4/6 180/4/6
